<svg xmlns="http://www.w3.org/2000/svg" width="50" height="50" viewBox="0 0 50 50">
  <g id="Group_121" data-name="Group 121" transform="translate(-1316 -2442)">
    <path id="Path_207" data-name="Path 207" d="M9,0H41a9,9,0,0,1,9,9V41a9,9,0,0,1-9,9H9a9,9,0,0,1-9-9V9A9,9,0,0,1,9,0Z" transform="translate(1316 2442)" fill="#ff3b30" opacity="0.2"/>
    <path id="Path_208" data-name="Path 208" d="M-.6,3.415A12.291,12.291,0,0,0,3.967,2.6,10.212,10.212,0,0,0,7.5.292,10.124,10.124,0,0,0,9.782-3.3a13.025,13.025,0,0,0,.793-4.646,16.8,16.8,0,0,0-.736-5.142A14.637,14.637,0,0,0,7.827-17.17,15.048,15.048,0,0,0,4.9-20.255,17.3,17.3,0,0,0,1.416-22.4a17.752,17.752,0,0,0-3.694-1.244,16.836,16.836,0,0,0-3.536-.4,2.8,2.8,0,0,0-1.428.311,1,1,0,0,0-.527.92,1.235,1.235,0,0,0,.1.482,1.71,1.71,0,0,0,.3.47q.749.9,1.441,1.917A11.114,11.114,0,0,1-4.78-17.8a6.564,6.564,0,0,1,.463,2.387,4.294,4.294,0,0,1-.083.844,3.256,3.256,0,0,1-.387.946l.635-.127A5.235,5.235,0,0,0-5-15.406,4.367,4.367,0,0,0-6.24-16.529,2.683,2.683,0,0,0-7.6-16.936a.815.815,0,0,0-.635.267.983.983,0,0,0-.241.686q0,.241.044.743t.044.92a5.753,5.753,0,0,1-.216,1.6,12.518,12.518,0,0,1-.546,1.511q-.33.762-.654,1.619a12.9,12.9,0,0,0-.546,1.923,12.025,12.025,0,0,0-.222,2.438A8.242,8.242,0,0,0-9.331-.686,8.31,8.31,0,0,0-5.846,2.336,11.975,11.975,0,0,0-.6,3.415ZM-.47,1.638A10.321,10.321,0,0,1-4.831.774,6.9,6.9,0,0,1-7.744-1.631a6.28,6.28,0,0,1-1.041-3.6,9.632,9.632,0,0,1,.229-2.209A11.219,11.219,0,0,1-7.992-9.2q.336-.8.673-1.549a10.779,10.779,0,0,0,.559-1.555,6.757,6.757,0,0,0,.222-1.8,3.693,3.693,0,0,0-.063-.7,6.083,6.083,0,0,0-.152-.622l-.292.508a3.6,3.6,0,0,1,.933.793A5,5,0,0,1-5.4-12.968a8.139,8.139,0,0,1,.508,1.542.533.533,0,0,0,.14.3.357.357,0,0,0,.254.1.907.907,0,0,0,.7-.413,3.822,3.822,0,0,0,.559-1.06,8.607,8.607,0,0,0,.368-1.365A7.3,7.3,0,0,0-2.729-15.2a10.125,10.125,0,0,0-.4-2.837,10.613,10.613,0,0,0-1.136-2.583A10.1,10.1,0,0,0-6.03-22.775l-.343.406a18.479,18.479,0,0,1,5.072.787A15.045,15.045,0,0,1,2.875-19.57,13.524,13.524,0,0,1,6.03-16.517,13.317,13.317,0,0,1,8.023-12.6a15.033,15.033,0,0,1,.686,4.589A10.647,10.647,0,0,1,7.56-2.958,8.378,8.378,0,0,1,4.342.425,9.343,9.343,0,0,1-.47,1.638ZM-.3-.152A4.448,4.448,0,0,0,2.2-.812,4.1,4.1,0,0,0,3.694-2.552a5.534,5.534,0,0,0,.5-2.336,7.02,7.02,0,0,0-.476-2.5A7.539,7.539,0,0,0,2.3-9.712,7.122,7.122,0,0,0-.038-11.438a.125.125,0,0,0-.14.006.139.139,0,0,0-.038.133A10.974,10.974,0,0,1-.267-8.4,4.667,4.667,0,0,1-.99-6.373,8.043,8.043,0,0,0-1.53-7.4a3.992,3.992,0,0,0-.743-.87A.125.125,0,0,0-2.393-8.3q-.057.019-.07.108a2.534,2.534,0,0,1-.355,1q-.279.451-.609.939a6.048,6.048,0,0,0-.578,1.092A3.786,3.786,0,0,0-4.253-3.72,3.321,3.321,0,0,0-3.167-1.136,4.1,4.1,0,0,0-.3-.152Z" transform="translate(1341 2477)" fill="#ff3b30"/>
  </g>
</svg>
