<?xml version="1.0" standalone="no"?>
<!DOCTYPE svg PUBLIC "-//W3C//DTD SVG 20010904//EN"
 "http://www.w3.org/TR/2001/REC-SVG-20010904/DTD/svg10.dtd">
<svg version="1.0" xmlns="http://www.w3.org/2000/svg"
 width="96.000000pt" height="96.000000pt" viewBox="0 0 96.000000 96.000000"
 preserveAspectRatio="xMidYMid meet">

<g transform="translate(0.000000,96.000000) scale(0.100000,-0.100000)"
fill="#000000" stroke="none">
<path d="M330 827 c-91 -26 -164 -89 -203 -176 -29 -64 -29 -179 0 -242 79
-174 297 -240 449 -136 38 26 56 50 96 127 48 91 50 98 44 153 -16 155 -130
269 -281 282 -35 3 -79 -1 -105 -8z m180 -68 c60 -27 98 -64 126 -124 78 -164
-43 -355 -226 -355 -64 0 -141 32 -182 76 -89 96 -89 252 0 348 67 72 192 96
282 55z"/>
<path d="M376 722 c-4 -6 -4 -45 0 -85 4 -51 3 -76 -5 -81 -17 -11 -13 -41 9
-61 11 -10 20 -28 20 -40 0 -12 3 -24 6 -28 12 -11 34 5 34 26 0 11 5 35 12
54 11 29 9 35 -9 55 -14 15 -24 43 -28 80 -8 61 -27 100 -39 80z m50 -183 c10
-17 -13 -36 -27 -22 -12 12 -4 33 11 33 5 0 12 -5 16 -11z"/>
</g>
</svg>
