<?xml version="1.0" standalone="no"?>
<!DOCTYPE svg PUBLIC "-//W3C//DTD SVG 20010904//EN"
 "http://www.w3.org/TR/2001/REC-SVG-20010904/DTD/svg10.dtd">
<svg version="1.0" xmlns="http://www.w3.org/2000/svg"
 width="80.000000pt" height="80.000000pt" viewBox="0 0 80.000000 80.000000"
 preserveAspectRatio="xMidYMid meet">

<g transform="translate(0.000000,80.000000) scale(0.100000,-0.100000)"
fill="#000000" stroke="none">
<path d="M283 755 c-35 -24 -43 -77 -43 -272 0 -178 -1 -183 -25 -219 -68
-100 4 -234 125 -234 121 0 193 134 125 234 -24 36 -25 41 -25 219 0 100 -5
199 -10 219 -13 46 -43 68 -90 68 -20 0 -45 -7 -57 -15z m117 -15 c18 -18 20
-33 20 -130 l0 -110 -80 0 -80 0 0 110 c0 129 11 150 80 150 27 0 47 -7 60
-20z m20 -349 c0 -68 4 -92 16 -102 43 -36 57 -124 29 -180 -48 -92 -202 -92
-250 0 -28 56 -14 144 29 180 12 10 16 34 16 102 l0 89 80 0 80 0 0 -89z"/>
<path d="M510 710 c0 -5 23 -10 50 -10 28 0 50 5 50 10 0 6 -22 10 -50 10 -27
0 -50 -4 -50 -10z"/>
<path d="M510 630 c0 -5 23 -10 50 -10 28 0 50 5 50 10 0 6 -22 10 -50 10 -27
0 -50 -4 -50 -10z"/>
<path d="M510 550 c0 -5 23 -10 50 -10 28 0 50 5 50 10 0 6 -22 10 -50 10 -27
0 -50 -4 -50 -10z"/>
<path d="M510 470 c0 -5 23 -10 50 -10 28 0 50 5 50 10 0 6 -22 10 -50 10 -27
0 -50 -4 -50 -10z"/>
<path d="M510 390 c0 -5 23 -10 50 -10 28 0 50 5 50 10 0 6 -22 10 -50 10 -27
0 -50 -4 -50 -10z"/>
<path d="M510 310 c0 -5 23 -10 50 -10 28 0 50 5 50 10 0 6 -22 10 -50 10 -27
0 -50 -4 -50 -10z"/>
</g>
</svg>
