<svg xmlns="http://www.w3.org/2000/svg" width="50" height="50" viewBox="0 0 50 50">
  <g id="Group_123" data-name="Group 123" transform="translate(-1380 -2441)">
    <path id="Path_209" data-name="Path 209" d="M9,0H41a9,9,0,0,1,9,9V41a9,9,0,0,1-9,9H9a9,9,0,0,1-9-9V9A9,9,0,0,1,9,0Z" transform="translate(1380 2441)" opacity="0.2"/>
    <g id="Group_122" data-name="Group 122" transform="translate(-358 2424)">
      <path id="Path_210" data-name="Path 210" d="M7.173-4.786A12.848,12.848,0,0,1,1.136-6.119a9.376,9.376,0,0,1-3.923-3.8,11.805,11.805,0,0,1-1.377-5.853,15.1,15.1,0,0,1,.216-2.653,6.814,6.814,0,0,1,.571-1.892,2.564,2.564,0,0,0,.184-.444,1.363,1.363,0,0,0,.044-.355.932.932,0,0,0-.26-.616.845.845,0,0,0-.667-.3,1.663,1.663,0,0,0-.254.032,2.136,2.136,0,0,0-.444.146,12.058,12.058,0,0,0-4.151,2.806,13.7,13.7,0,0,0-2.825,4.285,13.022,13.022,0,0,0-1.022,5.1,14.067,14.067,0,0,0,.984,5.326A12.563,12.563,0,0,0-9.014-.114a12.643,12.643,0,0,0,4.221,2.78,13.988,13.988,0,0,0,5.326.99,13.966,13.966,0,0,0,5.116-.92A12.365,12.365,0,0,0,9.788.1a12.523,12.523,0,0,0,2.806-4.088,1.837,1.837,0,0,0,.146-.451,2.042,2.042,0,0,0,.032-.3A.806.806,0,0,0,12.5-5.37a.848.848,0,0,0-.565-.241,1.63,1.63,0,0,0-.292.025,2.835,2.835,0,0,0-.368.1,7.43,7.43,0,0,1-1.187.368,13.553,13.553,0,0,1-1.409.241A12.651,12.651,0,0,1,7.173-4.786ZM-10.778-9.75a11.405,11.405,0,0,1,.654-3.821,11.9,11.9,0,0,1,1.854-3.39,10.993,10.993,0,0,1,2.837-2.564,10.967,10.967,0,0,0-.463,1.86,13.031,13.031,0,0,0-.159,2.076,14.042,14.042,0,0,0,1.542,6.8A10.417,10.417,0,0,0-.07-4.443,14.875,14.875,0,0,0,6.881-2.933a13.043,13.043,0,0,0,1.828-.121,8.418,8.418,0,0,0,1.638-.4A9.956,9.956,0,0,1,7.877-.711,11.319,11.319,0,0,1,4.513,1.06a12.34,12.34,0,0,1-3.9.616A11.983,11.983,0,0,1-3.936.832a10.79,10.79,0,0,1-3.618-2.38,10.775,10.775,0,0,1-2.38-3.625A12.1,12.1,0,0,1-10.778-9.75Z" transform="translate(1763 52)" fill="#202020"/>
    </g>
  </g>
</svg>
