<svg xmlns="http://www.w3.org/2000/svg" width="44" height="44" viewBox="0 0 44 44">
  <g id="Group_129" data-name="Group 129" transform="translate(-1669 -438)">
    <circle id="Colour" cx="22" cy="22" r="22" transform="translate(1669 438)" fill="#f5f5f5"/>
    <path id="Placeholder_Label" data-name="Placeholder Label" d="M6.789,2.524h9.84a2.412,2.412,0,0,0,1.8-.618,2.694,2.694,0,0,0,.6-1.939v-7.4a2.659,2.659,0,0,0-.6-1.917,2.412,2.412,0,0,0-1.8-.618H6.789a2.412,2.412,0,0,0-1.8.618,2.659,2.659,0,0,0-.6,1.917v7.4a2.693,2.693,0,0,0,.6,1.939A2.412,2.412,0,0,0,6.789,2.524ZM6.854.913A.747.747,0,0,1,6.295.725.9.9,0,0,1,6.112.086V-7.541a.882.882,0,0,1,.183-.634.76.76,0,0,1,.559-.183h9.722a.741.741,0,0,1,.553.183.9.9,0,0,1,.177.634V.086a.922.922,0,0,1-.177.639.728.728,0,0,1-.553.188ZM6.241-9.12H7.971v-3.642a4.585,4.585,0,0,1,.516-2.272,3.471,3.471,0,0,1,1.37-1.386,3.8,3.8,0,0,1,1.853-.467,3.789,3.789,0,0,1,1.858.467,3.481,3.481,0,0,1,1.364,1.386,4.585,4.585,0,0,1,.516,2.272V-9.12h1.729v-3.416a7.09,7.09,0,0,0-.451-2.643A5.3,5.3,0,0,0,15.5-17.053a5.1,5.1,0,0,0-1.756-1.117,5.723,5.723,0,0,0-2.036-.371,5.68,5.68,0,0,0-2.03.371,5.108,5.108,0,0,0-1.751,1.117A5.354,5.354,0,0,0,6.7-15.179a7.015,7.015,0,0,0-.457,2.643Z" transform="translate(1679 467)" fill="#c4c4c6"/>
  </g>
</svg>
