<svg xmlns="http://www.w3.org/2000/svg" width="20.985" height="27.054" viewBox="0 0 20.985 27.054">
  <path id="Path_377" data-name="Path 377" d="M-6.176-18.8a.756.756,0,0,0-.578.222.843.843,0,0,0-.209.6v2.323a.848.848,0,0,0,.209.6.744.744,0,0,0,.578.229h8a.724.724,0,0,0,.571-.229.865.865,0,0,0,.2-.6v-2.323a.859.859,0,0,0-.2-.6.735.735,0,0,0-.571-.222Zm0,5.1a.768.768,0,0,0-.578.216.821.821,0,0,0-.209.6v2.336a.825.825,0,0,0,.209.59.756.756,0,0,0,.578.222H6.189a.756.756,0,0,0,.578-.222.862.862,0,0,0,.209-.616v-2.311a.821.821,0,0,0-.209-.6.768.768,0,0,0-.578-.216Zm0,5.091a.768.768,0,0,0-.578.216.8.8,0,0,0-.209.584v2.349a.825.825,0,0,0,.209.59.756.756,0,0,0,.578.222H4.018a.739.739,0,0,0,.565-.222.825.825,0,0,0,.209-.59V-7.808a.8.8,0,0,0-.209-.584.751.751,0,0,0-.565-.216Zm0,5.078a.744.744,0,0,0-.578.229.848.848,0,0,0-.209.6V-.381a.843.843,0,0,0,.209.6.756.756,0,0,0,.578.222H-.286A.744.744,0,0,0,.273.222a.829.829,0,0,0,.216-.6V-2.7a.834.834,0,0,0-.216-.6.734.734,0,0,0-.559-.229ZM-10.493.635a3.8,3.8,0,0,0,.933,2.8,3.764,3.764,0,0,0,2.774.933H6.786A3.764,3.764,0,0,0,9.56,3.434a3.8,3.8,0,0,0,.933-2.8V-18.941a3.829,3.829,0,0,0-.933-2.8,3.733,3.733,0,0,0-2.774-.946H-6.786a3.733,3.733,0,0,0-2.774.946,3.829,3.829,0,0,0-.933,2.8ZM-8.931.609V-18.9a2.265,2.265,0,0,1,.559-1.65,2.227,2.227,0,0,1,1.663-.571H6.709a2.227,2.227,0,0,1,1.663.571,2.265,2.265,0,0,1,.559,1.65V.609a2.224,2.224,0,0,1-.559,1.631,2.242,2.242,0,0,1-1.663.565H-6.709a2.242,2.242,0,0,1-1.663-.565A2.224,2.224,0,0,1-8.931.609Z" transform="translate(10.493 22.687)" fill="#000"/>
</svg>
